# xmcd
#
# Track frame offsets: 
#        150
#        11903
#        26356
#        37598
#        51189
#        61630
#        78047
#        90029
#        106170
#        116587
#        127538
#        138549
#        153082
#        164185
#        175848
#        182321
#        200680
#        207553
#        220666
#        234577
#        248676
#        268305
#        281053
#        293083
#        301830
#
# Disc length: 4382 seconds
#
# Revision: 1
# Processed by: cddbd v1.5.2PL0 Copyright (c) Steve Scherf et al.
# Submitted via: ExactAudioCopy v1.3
#
DISCID=46111c19
DTITLE=Various Artist - Louisiana Hayride CD 15 (Live Feb-Mar 1960)
DYEAR=2017
DGENRE=Country
TTITLE0=Roger Miller - Your House Is Not A Home
TTITLE1=Jerry Jericho - Oh Boy
TTITLE2=Jerry Jericho - Mind Your Own Business
TTITLE3=Roger Miller - Big Harlan Taylor
TTITLE4=Roger Miller - Billy Bayou
TTITLE5=Elsie Holly - I'd Rather Stay Home
TTITLE6=The Gays - Just A Closer Walk With Thee
TTITLE7=The Gays - I Wonder Just When That Will Be
TTITLE8=George Jones - Too Much Water
TTITLE9=George Jones - Accidentally On Purpose
TTITLE10=The Hooper Twins - Which One Of Us Is To Blame?
TTITLE11=The Gays - Running Bear
TTITLE12=George Jones - Treasure Of Love
TTITLE13=George Jones - Sparklin' Brown Eyes
TTITLE14=George Jones - Long Tall Sally
TTITLE15=Vera and Verna Gay - Red Sails In The Sunset
TTITLE16=talk about next week in Texas and outro theme
TTITLE17=Dee Mullin - (intro from Brownwood, Texas) Alone With You
TTITLE18=Lump Lump Boys - Playboy Rag
TTITLE19=Jack Newman - I Just Can't Stand These Blues
TTITLE20=Dean Evans - Nobody Loves A Broken Heart
TTITLE21=The Chimes - Above And Beyond
TTITLE22=The Chimes - Free Me (From The Blues)
TTITLE23=Carla Cates - Two Whoops And A Holler
TTITLE24=Jamup and Honey - (jokes) Anytime
EXTD=
EXTT0=
EXTT1=
EXTT2=
EXTT3=
EXTT4=
EXTT5=
EXTT6=
EXTT7=
EXTT8=
EXTT9=
EXTT10=
EXTT11=
EXTT12=
EXTT13=
EXTT14=
EXTT15=
EXTT16=
EXTT17=
EXTT18=
EXTT19=
EXTT20=
EXTT21=
EXTT22=
EXTT23=
EXTT24=
PLAYORDER=
